<svg xmlns="http://www.w3.org/2000/svg" viewBox="0 0 42.59 74.15"><path d="M42.59 49.08v18.04c0 3.88-3.15 7.03-7.03 7.03H7.06C3.18 74.15.03 71 .03 67.12V52.03c1.41-1.64 2.79-2.97 4.12-4.06.96-.55 2.42-1.25 4.31-1.62 1.52-.3 2.67-.26 4.54-.18 6.74.31 6.36.46 7.67.4 1.92-.09 4.94-.23 7.9-2.13.54-.35 1.7-1.1 2.82-2.39h4.18c3.88 0 7.03 3.15 7.03 7.03" fill="#f32735"/><path d="M40.78 59.02v7.89c0 3-2.44 5.43-5.43 5.43H7.27c-3 0-5.43-2.44-5.43-5.43v-7.89z" fill="#fcea00"/><path d="m12.52 69.13-1.55-2.63c.24-.2.44-.42.6-.68.43-.69.65-1.37.65-2.06 0-.86-.28-1.61-.84-2.26a3.34 3.34 0 0 0-2.07-1.16h-.07c-.16-.03-.31-.04-.47-.04H5.82c-.34 0-.64.13-.89.37-.24.24-.37.54-.37.89v8.16c0 .34.13.64.37.88.23.24.52.37.88.37h.03c.33 0 .63-.13.88-.37.24-.24.36-.53.36-.88v-2.53h1.47l1.87 3.17c.17.29.42.48.75.56s.63.04.92-.13l.03-.02c.29-.17.48-.42.56-.74.08-.33.04-.64-.14-.93m-3.16-4.27q-.45.48-1.08.48H7.07v-3.25H8.3c.42 0 .79.15 1.08.48.3.32.45.7.45 1.15s-.15.83-.45 1.15m7.68 4.82c0 .35-.13.65-.37.89-.24.25-.54.37-.89.37h-.03c-.35 0-.65-.13-.89-.37-.25-.24-.37-.54-.37-.89v-8.05c0-.35.13-.65.37-.89.24-.25.54-.37.89-.37h.03c.35 0 .65.13.89.37.25.24.37.54.37.89zm9.48-.53c.47.14.7.46.7.96s-.24.81-.72.94-.99.2-1.54.23c-.11 0-.19.02-.25.02h-.25c-.05 0-.14 0-.25-.02-1.74-.09-3.1-.63-4.07-1.63-.91-.95-1.37-2.16-1.37-3.65q0-2.415 1.56-3.93c.98-.95 2.27-1.5 3.88-1.64.17-.02.3-.03.38-.03s.21 0 .37.03c.55.05 1.07.15 1.57.32.44.14.66.43.65.9 0 .47-.23.77-.67.9h-.03c-.23.07-.46.05-.69-.05-.39-.18-.79-.27-1.22-.27-.88 0-1.64.35-2.27 1.06s-.94 1.57-.94 2.57.32 1.86.94 2.56c.63.71 1.39 1.06 2.27 1.06.42 0 .81-.09 1.2-.26a.93.93 0 0 1 .71-.05h.05Zm10.9-7.33c-.96-.97-2.21-1.53-3.77-1.67-.17-.02-.29-.03-.37-.03-.09 0-.21 0-.37.03-1.56.14-2.82.7-3.78 1.67-1.02 1.02-1.52 2.35-1.52 4 0 1.52.44 2.76 1.33 3.73.95 1.02 2.26 1.58 3.97 1.67.11.02.18.02.23.02h.25c.05 0 .14 0 .24-.02 1.7-.09 3.01-.65 3.96-1.67.89-.97 1.33-2.2 1.33-3.73 0-1.65-.5-2.99-1.52-4m-2 6.33c-.59.68-1.3 1.02-2.12 1.02s-1.54-.34-2.12-1.02c-.59-.68-.88-1.5-.88-2.46s.29-1.79.88-2.46c.59-.68 1.29-1.02 2.12-1.02s1.53.34 2.12 1.02.87 1.5.87 2.46-.3 1.79-.87 2.46" fill="#f32735"/><path d="M10.2 50.89c-.14-.26-.29-.47-.46-.62-.14-.11-.29-.22-.44-.29-.16-.07-.33-.13-.5-.17a3.4 3.4 0 0 0-.58-.07c-.21-.02-.45-.02-.7-.02H5.61c-.14 0-.26 0-.35.03s-.18.04-.25.08a.6.6 0 0 0-.19.16c-.07.08-.12.14-.16.21a.6.6 0 0 0-.08.24c0 .09-.03.2-.03.33v4.78c0 .33 0 .59.03.78.02.19.09.35.21.47q.135.15.33.21c.195.06.25.07.37.07.16 0 .29-.03.4-.09s.21-.13.28-.2c.12-.11.19-.27.21-.46.02-.18.03-.45.03-.78v-1.29h1.48c.15 0 .3 0 .47-.03a2.7 2.7 0 0 0 .95-.27c.26-.14.47-.32.62-.51.14-.19.26-.39.33-.58s.1-.38.12-.55.02-.3.02-.39c0-.46-.07-.81-.2-1.07Zm-1.77 1.58c-.1.14-.21.24-.34.31-.07.04-.15.06-.24.08s-.18.03-.27.04c-.1.02-.19.02-.27.02h-.89v-1.86h.68c.33 0 .57 0 .71.03s.26.06.33.11c.14.09.25.2.32.34s.11.28.11.44c0 .19-.05.35-.14.48Zm9.9-.54c-.14-.46-.37-.86-.67-1.2s-.69-.61-1.15-.8-1.04-.29-1.67-.29-1.18.09-1.63.3c-.46.2-.84.47-1.13.82-.29.34-.51.74-.65 1.2h-.02q-.21.69-.21 1.44c0 .56.08 1.07.23 1.54s.38.86.68 1.2.7.61 1.15.79.98.28 1.62.28 1.19-.1 1.65-.3c.47-.2.84-.48 1.14-.82.29-.34.51-.75.65-1.2.14-.46.21-.95.21-1.48s-.07-1.03-.21-1.49m-1.69 2.22c-.04.27-.12.52-.26.74-.15.26-.35.46-.61.61s-.55.23-.89.23-.62-.06-.83-.2a1.7 1.7 0 0 1-.46-.39c-.06-.07-.12-.16-.19-.26-.06-.1-.11-.21-.16-.35s-.08-.3-.12-.48v-.02c-.03-.19-.04-.4-.04-.64 0-.73.15-1.29.46-1.69s.76-.59 1.34-.59c.3 0 .55.05.76.14.2.1.38.21.51.36.13.14.24.31.31.48a2.7 2.7 0 0 1 .21.98v.32c0 .24-.02.49-.05.76Zm7.39 1.47c.27 0 .48 0 .64.03s.28.07.38.17c.05.05.11.12.16.22.05.09.08.2.08.33 0 .22-.08.4-.24.55-.11.11-.23.16-.39.18s-.37.03-.64.03h-3.24c-.13 0-.25-.02-.33-.03s-.17-.04-.24-.08c-.06-.04-.13-.09-.21-.16-.07-.06-.12-.12-.16-.19s-.06-.15-.08-.25-.03-.21-.03-.35v-4.77c0-.33 0-.6.03-.78s.09-.34.21-.46c.07-.07.16-.13.27-.19s.25-.1.4-.1c.27 0 .5.1.69.28.12.13.19.29.21.47s.03.45.03.78v4.33h2.46Zm6.44 0c.27 0 .48 0 .64.03s.28.07.38.17c.05.05.11.12.16.22.05.09.08.2.08.33 0 .22-.08.4-.24.55-.11.11-.23.16-.39.18s-.37.03-.64.03h-3.24c-.13 0-.25-.02-.33-.03s-.17-.04-.24-.08c-.06-.04-.13-.09-.21-.16-.07-.06-.12-.12-.16-.19s-.06-.15-.08-.25-.03-.21-.03-.35v-4.77c0-.33 0-.6.03-.78s.09-.34.21-.46c.07-.07.16-.13.27-.19s.25-.1.4-.1c.27 0 .5.1.69.28.12.13.19.29.21.47s.03.45.03.78v4.33h2.46Zm8.33-3.68c-.14-.46-.37-.86-.67-1.2s-.69-.61-1.15-.8-1.04-.29-1.67-.29-1.18.09-1.63.3c-.46.2-.84.47-1.13.82-.29.34-.51.74-.65 1.2h-.02q-.21.69-.21 1.44c0 .56.08 1.07.23 1.54s.38.86.68 1.2.7.61 1.15.79.98.28 1.62.28 1.19-.1 1.65-.3c.47-.2.84-.48 1.14-.82.29-.34.51-.75.65-1.2.14-.46.21-.95.21-1.48s-.07-1.03-.21-1.49m-1.69 2.22c-.04.27-.12.52-.26.74-.15.26-.35.46-.61.61s-.55.23-.89.23-.62-.06-.83-.2a1.7 1.7 0 0 1-.46-.39c-.06-.07-.12-.16-.19-.26-.06-.1-.11-.21-.16-.35s-.08-.3-.12-.48v-.02c-.03-.19-.04-.4-.04-.64 0-.73.15-1.29.46-1.69s.76-.59 1.34-.59c.3 0 .55.05.75.14.2.1.38.21.51.36.13.14.24.31.31.48a2.7 2.7 0 0 1 .21.98v.32c0 .24-.02.49-.05.76Z" fill="#fcea00"/><path d="M41.15 32.98c-.16 1.5-1.4 2.89-2.89 3.21a3.8 3.8 0 0 1-3.52-.92c-.28-.26-.52-.57-.7-.9-.03-.66-.12-1.32-.26-1.97.98-.86 2.06-2.03 2.92-3.58.48-.86.86-1.78 1.14-2.75 1.87 1.9 3.45 4.06 3.31 6.9" fill="#f32735"/><path d="M40.87 25.05c-.37.04-.95.07-1.64-.02-.4-.05-.76-.13-1.07-.21.16-.81.26-1.62.29-2.44.57.84 1.35 1.74 2.43 2.68m1.39-3.56c-.62-.07-1.25-.08-1.87-.04-.71.05-1.31.09-1.95.3 0-.49-.03-.99-.07-1.49-.05-.54-.14-1.08-.25-1.61.76.22 1.61.57 2.47 1.19.8.58 1.34 1.2 1.68 1.64" fill="#ef7b30"/><path d="m34.74 12.01-.12-.12c-2.94-3.08-6.67-3.95-8.88-4.18-.22-.02-.43-.04-.62-.05-.35-.02-.63-.03-.85-.03h-.19c-1.89.03-3.74.45-5.54 1.25-.16.07-.32.14-.48.22q-2.265 1.095-4.41 3c-.14-.07-.28-.16-.42-.26-.22-.17-1.02-.77-1.26-1.86a3.08 3.08 0 0 1 .8-2.8c.83-.89 2.29-1.17 3.39-.68.14.07.27.15.39.23-.08-.33-.13-.71-.12-1.11a4.14 4.14 0 0 1 2-3.41c1.4-.89 3.42-.77 4.7.25q.6.555 1.05 1.17A4.7 4.7 0 0 1 26.32.69c1.58-1.01 3.86-.88 5.31.28 3.16 2.87 3.24 7.08 3.09 11.04" fill="#f32735"/><path d="M32.83 34.75c-.09 1.58-.62 2.73-.95 3.43a11.3 11.3 0 0 1-3 3.88q-.315.27-.69.54c-.51.35-1.03.65-1.54.92-.12.06-.24.12-.37.17-.85.38-1.47.52-2.62.79-.96.23-2.79.65-5.09.65-2.74 0-3.32-.58-6.5-.59-1.15 0-2.09.07-2.72.13.8-.37 1.56-.66 2.25-.89 2.19-.72 4.24-1 7.7-2.64 2.72-1.29 4.78-2.27 6.7-4.5.12-.14.3-.35.51-.62 2.7-.69 4.24-1.48 5.01-1.96.29-.19.74-.47 1.26-.86.06.44.09.96.05 1.54m4.37-12.95v.42c0 .09 0 .17-.01.26-.04.77-.14 1.54-.3 2.29-.02.11-.05.22-.07.33-.02.07-.04.15-.05.22v.01c-.02.06-.03.12-.05.18 0 .02-.01.05-.02.07-.03.1-.05.19-.08.29l-.06.18-.06.18c-.04.12-.08.23-.12.35s-.09.23-.13.35c0 .01 0 .02-.01.03-.04.1-.09.2-.13.3-.02.05-.04.1-.07.15-.02.05-.05.1-.07.15-.06.13-.12.26-.19.38 0 .02-.02.03-.02.05-.02.03-.04.07-.05.1-.03.05-.05.1-.08.15-.03.06-.07.12-.1.17s-.05.09-.08.14c0 0 0 .01-.01.02 0 0-.01.02-.02.03 0 0 0 .01-.01.02-.05.09-.11.17-.16.26v.02l-.1.15c-.07.11-.15.22-.22.32l-.08.11c0 .01-.02.02-.03.04-.06.08-.12.15-.17.23l-.12.15v.01c-.01.01-.02.03-.03.04-.27.33-.55.64-.86.94-.06.07-.13.13-.19.19-.07.07-.14.14-.21.2-.15.13-.29.26-.43.38-.04.03-.07.06-.11.09s-.07.06-.1.09c-.07.05-.13.11-.2.16-.1.08-.2.16-.3.23-.05.04-.11.08-.16.12 0 0-.02.02-.03.02-.03.02-.06.05-.09.07-.22.15-.43.3-.66.44-.04.03-.08.05-.12.07l-.15.09c-.01 0-.02.02-.04.02-.01 0-.03.02-.04.02 0 0-.01 0-.02.01-.02.01-.05.03-.08.05-.01 0-.03.02-.04.02-.02 0-.03.02-.05.03-.02 0-.03.02-.05.03s-.03.02-.05.03c-.03.02-.07.04-.11.06l-.12.06h-.03l-.1.07c-.05.02-.09.05-.14.07H30c-.03.02-.06.03-.09.05-.51.24-1.2.54-2.12.83-.06.02-.11.04-.17.06.91-1.54 1.83-3.74 1.83-6.43 0-4.42-2.25-8.33-5.73-10.62-3.57-2.45-8.61-2.7-12.5-.84 1.06-1.32 2.34-2.75 3.86-4 1.2-1 2.54-1.89 4.03-2.54.09-.04.17-.07.26-.11 1.46-.61 3.05-.99 4.78-1.02.46 0 2.03 0 3.94.54l.2.06c.06.02.11.03.17.05.05.02.11.03.16.05.23.08.47.16.71.25.06.02.12.05.18.07.09.04.18.08.28.12.09.04.19.08.28.12.06.03.12.05.18.08.24.11.47.23.7.36.25.14.5.29.75.46.11.07.22.14.33.22.12.08.23.17.35.25.09.07.18.14.26.21.04.03.09.07.13.11s.09.07.13.11c.06.05.12.1.17.15.05.04.09.09.14.13.07.06.14.12.2.19.06.05.11.11.17.16.13.13.26.27.39.41l.21.24.15.18c.06.07.12.15.18.22.04.06.09.11.13.17s.09.11.13.17.09.12.13.19l.07.1c.03.05.06.09.09.14s.06.09.09.14c0 0 .01.02.02.03.01.02.02.04.04.06.06.09.12.19.18.29.05.08.09.15.13.23.06.1.11.2.17.3.02.05.05.09.07.13.02.05.05.09.07.14v.02c0 .01.01.02.02.04l.09.18.06.12c.04.09.08.19.12.28s.08.19.12.28l.06.14v.02c.02.04.03.08.05.12.02.07.05.13.07.2.03.07.05.14.07.21v.01l.02.06c.03.08.06.17.08.26 0 .02.01.05.02.07.03.09.05.18.08.27v.03c.03.11.06.21.08.32.01.06.03.12.04.18v.13h.01c.03.12.05.23.07.35l.06.33v.03l.03.13c.02.09.03.19.04.28 0 .03 0 .05.01.08l.03.24c0 .03 0 .07.01.1v.06l.03.35c.01.12.02.24.02.36v.8Z" fill="#fff"/><path d="M38.45 21.77c0 .2 0 .41-.01.61-.03.82-.12 1.64-.29 2.44-.08.42-.19.84-.31 1.25-.28.97-.67 1.89-1.14 2.75-.86 1.55-1.94 2.72-2.92 3.58.15.65.23 1.31.26 1.97.05 1.12-.05 2.47-.52 3.92a10.9 10.9 0 0 1-2.14 3.76c-1.12 1.29-2.28 2.04-2.82 2.39-2.97 1.9-5.98 2.04-7.9 2.13-1.3.06-.92-.09-7.67-.4-1.87-.09-3.02-.13-4.54.18-1.89.37-3.35 1.07-4.31 1.62l.27-.21c.64-.51 1.36-1.03 2.16-1.55.11-.07.21-.14.32-.21l.17-.11.36-.21c.08-.05.17-.1.25-.15.06-.04.13-.07.19-.11.22-.12.43-.24.64-.34.19-.1.37-.19.56-.28h.01c.09-.04.18-.08.26-.12.62-.06 1.57-.14 2.72-.13 3.18 0 3.76.59 6.5.59 2.3 0 4.14-.43 5.09-.65 1.15-.27 1.77-.42 2.62-.79.13-.06.25-.11.37-.17.54-.26 1.05-.57 1.54-.92.25-.18.48-.35.69-.54.78-.65 1.34-1.29 1.7-1.76.67-.86 1.08-1.65 1.3-2.12.33-.7.85-1.85.95-3.43.03-.57 0-1.09-.05-1.54-.52.39-.97.67-1.26.86-.77.49-2.32 1.28-5.01 1.96.13-.17.28-.36.43-.58.24-.33.46-.67.67-1.03.06-.02.12-.04.17-.06.92-.3 1.61-.59 2.12-.83.03-.01.06-.03.09-.05h.02c.05-.02.09-.05.14-.07.03-.02.07-.04.1-.05h.03s.08-.06.12-.08.07-.04.11-.06c.02 0 .03-.02.05-.03s.03-.02.05-.03c.02 0 .03-.02.05-.03.01 0 .03-.02.04-.02.03-.02.05-.03.08-.05 0 0 .01 0 .02-.01.01 0 .03-.02.04-.02s.02-.02.04-.02c.05-.03.09-.06.15-.09.04-.02.07-.05.12-.07.19-.12.41-.27.66-.44a.6.6 0 0 0 .09-.07s.02-.01.03-.02c.05-.04.11-.08.16-.12.1-.07.2-.15.3-.23.07-.05.13-.1.2-.16.04-.03.07-.06.1-.09s.07-.06.11-.09c.14-.12.29-.25.43-.38.07-.07.14-.13.21-.2.06-.06.13-.12.19-.19a13 13 0 0 0 .89-.98v-.01l.12-.15c.06-.07.12-.15.17-.23 0-.01.02-.02.03-.04.02-.04.05-.07.08-.11.04-.06.08-.12.12-.17.03-.05.07-.1.1-.15l.1-.15v-.02c.05-.09.11-.17.16-.26 0 0 0-.01.01-.02 0 0 .01-.02.02-.03 0 0 0-.01.01-.02.03-.05.05-.09.08-.14.03-.06.07-.12.1-.17s.05-.1.08-.15c.02-.03.04-.07.05-.1 0-.01.02-.03.02-.04.07-.13.13-.26.19-.38s.05-.1.07-.15.05-.1.07-.15c.04-.1.09-.2.13-.3 0-.01 0-.02.01-.03.05-.11.09-.23.13-.35s.08-.23.12-.35l.06-.18.06-.18c.03-.09.06-.19.08-.29 0-.02.01-.05.02-.07.02-.06.03-.12.05-.18v-.01c.02-.07.04-.15.05-.22.03-.11.05-.22.07-.33.03-.12.05-.25.07-.37.12-.63.19-1.27.22-1.92v-1.48c0-.12-.01-.24-.02-.36 0-.12-.02-.23-.03-.35v-.06c0-.03 0-.07-.01-.1 0-.08-.02-.16-.03-.23s0-.05-.01-.08c-.01-.09-.03-.18-.04-.28 0-.05-.01-.09-.02-.14v-.03c-.02-.11-.04-.22-.07-.33-.02-.12-.05-.23-.07-.35v-.04s-.01-.02-.02-.03v-.06c-.01-.06-.03-.12-.04-.18-.03-.11-.05-.21-.08-.32v-.03c-.02-.09-.05-.18-.08-.27 0-.02-.01-.05-.02-.07-.03-.09-.05-.17-.08-.26l-.02-.06c-.02-.09-.05-.16-.07-.23s-.05-.13-.07-.2a.6.6 0 0 0-.05-.12v-.02l-.06-.14c-.04-.09-.08-.19-.12-.28s-.08-.19-.12-.28l-.06-.12-.09-.18c0-.01-.01-.03-.02-.04v-.02c-.02-.05-.05-.09-.07-.14-.02-.04-.05-.09-.07-.13-.05-.1-.11-.2-.17-.3-.04-.08-.09-.15-.13-.23-.06-.1-.12-.19-.18-.29-.01-.02-.03-.04-.04-.06 0 0-.01-.02-.02-.03-.03-.05-.06-.09-.09-.14s-.06-.09-.09-.14l-.07-.1c-.04-.06-.09-.12-.13-.19-.04-.06-.09-.12-.13-.17-.04-.06-.09-.11-.13-.17-.06-.07-.12-.15-.18-.22l-.15-.18-.21-.24c-.12-.14-.25-.27-.39-.41-.05-.06-.11-.11-.17-.16-.07-.07-.13-.13-.2-.19-.05-.04-.09-.09-.14-.13-.06-.05-.12-.1-.17-.15-.04-.04-.09-.07-.13-.11s-.09-.07-.13-.11c-.09-.07-.18-.14-.26-.21-.11-.09-.23-.17-.35-.25-.11-.08-.22-.15-.33-.22-.25-.16-.5-.31-.75-.46-.23-.13-.46-.25-.7-.36-.06-.03-.12-.06-.18-.08-.09-.04-.19-.09-.28-.12-.09-.04-.19-.08-.28-.12-.06-.02-.12-.05-.18-.07-.24-.09-.48-.18-.71-.25-.05-.02-.11-.03-.16-.05-.06-.02-.11-.04-.17-.05l-.2-.06c-.71-.2-1.44-.35-2.18-.44-.72-.09-1.29-.1-1.59-.1h-.17c-1.73.03-3.32.41-4.78 1.02-.09.04-.17.07-.26.11-1.49.65-2.83 1.55-4.03 2.54-1.51 1.26-2.8 2.68-3.86 4-.23.11-.45.22-.66.34-.41.23-.8.48-1.17.76-.57.48-1.11.98-1.61 1.5.06-.1.13-.19.2-.29 1.16-1.66 3.09-4.43 5.72-6.77q2.145-1.905 4.41-3c.16-.08.32-.15.48-.22 1.8-.8 3.65-1.22 5.54-1.25h.19c.21 0 .5 0 .85.03.19.01.4.03.62.05 2.2.24 5.93 1.11 8.88 4.18l.12.12c1.68 1.81 2.86 4.13 3.38 6.66.11.53.19 1.07.25 1.61.05.5.07 1 .07 1.49Z" fill="#841815"/><path d="M23.7 17.38c-3.57-2.45-8.61-2.7-12.5-.84-.23.11-.45.22-.66.34-.41.23-.8.48-1.17.76-.57.48-1.11.98-1.61 1.5C-.7 27.78-.01 40.68.03 52.04c1.41-1.64 2.79-2.97 4.12-4.06l.27-.21c.85-.68 1.68-1.26 2.48-1.76l.17-.11.36-.21c.08-.05.17-.1.25-.15.06-.04.13-.07.19-.11.22-.12.43-.24.64-.34.19-.1.37-.19.56-.28h.01c.09-.04.18-.08.26-.12.8-.37 1.56-.66 2.25-.89 2.19-.72 4.24-1 7.7-2.64 2.72-1.29 4.78-2.27 6.7-4.5.12-.14.3-.35.51-.62.13-.17.28-.36.43-.58.24-.33.46-.67.67-1.03.91-1.54 1.83-3.74 1.83-6.43 0-4.42-2.25-8.33-5.73-10.62m-.36 12.53c-.49 2.56-2.33 4.03-2.84 4.43-1.3 1.03-2.56 1.35-4.21 1.77-2.1.54-3.26.47-4.56.63-1.77.23-4.31.96-7.31 3.33 1.28-6.68 2.33-14.41 8.89-18.09 2.55-1.23 5.99-.64 7.99 1.4a7.17 7.17 0 0 1 2.03 6.51" fill="#f32735"/><path d="M23.34 29.91c-.49 2.56-2.33 4.03-2.84 4.43-1.3 1.03-2.56 1.35-4.21 1.77-2.1.54-3.26.47-4.56.63-1.77.23-4.31.96-7.31 3.33 1.28-6.68 2.33-14.41 8.89-18.09 2.55-1.23 5.99-.64 7.99 1.4a7.17 7.17 0 0 1 2.03 6.51" fill="#fcea00"/><path d="M33.96 15.19c-.38-.8-1.2-1.36-2.15-1.36-1.31 0-2.38 1.07-2.38 2.38a2.386 2.386 0 0 0 3.56 2.07c.74-.42 1.2-1.21 1.2-2.07 0-.37-.08-.71-.23-1.02m-1.06 1.1c-.28 0-.52-.23-.52-.52s.23-.52.52-.52.52.23.52.52-.23.52-.52.52m-1.09 1.69c-.98 0-1.77-.79-1.77-1.77s.79-1.77 1.77-1.77c.49 0 .93.2 1.25.51-.89.03-1.6.76-1.6 1.66 0 .54.26 1.02.66 1.33-.1.02-.2.03-.31.03" fill="#841815"/></svg>